<svg xmlns="http://www.w3.org/2000/svg" width="232" height="41" fill="none"><rect width="40" height="40" y=".5" fill="#F2F5FC" rx="20"/><path fill="#181B2C" d="m23.275 21.375.4-2.533h-2.458v-1.646c0-.693.343-1.37 1.44-1.37h1.133V13.67a14 14 0 0 0-1.995-.17c-2.022 0-3.343 1.215-3.343 3.411v1.931H16.21v2.533h2.242V27.5h2.765v-6.125z"/><rect width="40" height="40" x="48" y=".5" fill="#F2F5FC" rx="20"/><g fill="#181B2C" clip-path="url(#a)"><path d="M64.259 18.004h-2.81a.226.226 0 0 0-.227.226v9.029c0 .125.102.226.226.226h2.81a.226.226 0 0 0 .227-.226v-9.03a.226.226 0 0 0-.226-.225M62.855 13.515A1.856 1.856 0 0 0 61 15.368c0 1.022.832 1.853 1.855 1.853a1.855 1.855 0 0 0 1.853-1.853 1.855 1.855 0 0 0-1.853-1.853M71.408 17.78c-1.13 0-1.963.485-2.47 1.036v-.586a.226.226 0 0 0-.225-.226H66.02a.226.226 0 0 0-.226.226v9.029c0 .125.101.226.226.226h2.804a.226.226 0 0 0 .226-.226V22.79c0-1.505.41-2.091 1.458-2.091 1.143 0 1.234.94 1.234 2.169v4.39c0 .125.101.226.226.226h2.805a.226.226 0 0 0 .226-.226v-4.953c0-2.238-.427-4.527-3.592-4.527"/></g><rect width="40" height="40" x="96" y=".5" fill="#F2F5FC" rx="20"/><path stroke="#181B2C" d="m112.909 14 .579.824-.504-.705-.085-.119z"/><rect width="40" height="40" x="144" y=".5" fill="#F2F5FC" rx="20"/><path fill="#181B2C" d="M157.475 17.637a1.836 1.836 0 0 1 1.748-1.715c1.356-.067 3.293-.148 4.752-.148 1.46 0 3.397.081 4.752.148.936.047 1.688.78 1.749 1.715.058.896.116 1.998.116 2.863s-.058 1.967-.116 2.863a1.837 1.837 0 0 1-1.749 1.715c-1.355.067-3.292.148-4.752.148s-3.396-.081-4.752-.148a1.836 1.836 0 0 1-1.748-1.715 48 48 0 0 1-.116-2.863c0-.865.058-1.967.116-2.863"/><path fill="#fff" d="M162.559 18.61v3.78l3.78-1.89z"/><rect width="40" height="40" x="192" y=".5" fill="#F2F5FC" rx="20"/><path fill="#181B2C" d="M209.667 20.5a2.334 2.334 0 1 1 4.667 0 2.334 2.334 0 0 1-4.667 0m-1.261 0a3.594 3.594 0 1 0 7.188 0 3.594 3.594 0 0 0-7.188 0m6.491-3.737a.84.84 0 0 0 .518.776.84.84 0 0 0 .916-.181.84.84 0 0 0-.594-1.434.84.84 0 0 0-.84.839m-5.725 9.435c-.682-.031-1.053-.145-1.3-.241a2.2 2.2 0 0 1-.805-.524 2.2 2.2 0 0 1-.524-.804c-.096-.247-.209-.618-.24-1.3-.034-.738-.041-.96-.041-2.829s.007-2.09.041-2.829c.031-.682.145-1.053.24-1.3.128-.327.279-.56.524-.805s.478-.397.805-.524c.247-.096.618-.21 1.3-.24.738-.034.96-.041 2.828-.041 1.869 0 2.091.007 2.829.04.683.032 1.053.146 1.3.242.327.126.56.278.805.523.246.245.397.478.524.805.096.247.21.618.241 1.3.034.739.041.96.041 2.829s-.007 2.09-.041 2.829c-.031.682-.146 1.053-.241 1.3-.127.326-.279.56-.524.804a2.2 2.2 0 0 1-.805.524c-.246.096-.617.21-1.3.24-.738.035-.959.041-2.829.041-1.869 0-2.09-.006-2.828-.04m-.058-12.656c-.745.034-1.254.152-1.699.325-.461.18-.85.419-1.24.808s-.629.78-.807 1.24c-.174.445-.292.954-.326 1.699S205 18.599 205 20.5c0 1.9.008 2.14.042 2.886.034.745.152 1.254.326 1.699.178.46.417.851.807 1.24s.779.628 1.24.807c.446.173.954.291 1.699.325.747.034.985.043 2.886.043s2.14-.008 2.886-.043 1.254-.152 1.699-.325c.461-.179.851-.418 1.241-.807.389-.39.628-.78.807-1.24.173-.445.292-.954.325-1.7s.042-.984.042-2.885-.008-2.14-.042-2.886c-.034-.745-.152-1.254-.325-1.7a3.4 3.4 0 0 0-.807-1.24 3.4 3.4 0 0 0-1.24-.806c-.446-.174-.954-.292-1.699-.326-.747-.034-.985-.042-2.886-.042s-2.14.008-2.887.042"/><path fill="#181B2C" d="M209.667 20.5a2.334 2.334 0 1 1 4.667 0 2.334 2.334 0 0 1-4.667 0m-1.261 0a3.594 3.594 0 1 0 7.188 0 3.594 3.594 0 0 0-7.188 0m6.491-3.737a.84.84 0 0 0 .518.776.84.84 0 0 0 .916-.181.84.84 0 0 0-.594-1.434.84.84 0 0 0-.84.839m-5.725 9.435c-.682-.031-1.053-.145-1.3-.241a2.2 2.2 0 0 1-.805-.524 2.2 2.2 0 0 1-.524-.804c-.096-.247-.209-.618-.24-1.3-.034-.738-.041-.96-.041-2.829s.007-2.09.041-2.829c.031-.682.145-1.053.24-1.3.128-.327.279-.56.524-.805s.478-.397.805-.524c.247-.096.618-.21 1.3-.24.738-.034.96-.041 2.828-.041 1.869 0 2.091.007 2.829.04.683.032 1.053.146 1.3.242.327.126.56.278.805.523.246.245.397.478.524.805.096.247.21.618.241 1.3.034.739.041.96.041 2.829s-.007 2.09-.041 2.829c-.031.682-.146 1.053-.241 1.3-.127.326-.279.56-.524.804a2.2 2.2 0 0 1-.805.524c-.246.096-.617.21-1.3.24-.738.035-.959.041-2.829.041-1.869 0-2.09-.006-2.828-.04m-.058-12.656c-.745.034-1.254.152-1.699.325-.461.18-.85.419-1.24.808s-.629.78-.807 1.24c-.174.445-.292.954-.326 1.699S205 18.599 205 20.5c0 1.9.008 2.14.042 2.886.034.745.152 1.254.326 1.699.178.46.417.851.807 1.24s.779.628 1.24.807c.446.173.954.291 1.699.325.747.034.985.043 2.886.043s2.14-.008 2.886-.043 1.254-.152 1.699-.325c.461-.179.851-.418 1.241-.807.389-.39.628-.78.807-1.24.173-.445.292-.954.325-1.7s.042-.984.042-2.885-.008-2.14-.042-2.886c-.034-.745-.152-1.254-.325-1.7a3.4 3.4 0 0 0-.807-1.24 3.4 3.4 0 0 0-1.24-.806c-.446-.174-.954-.292-1.699-.326-.747-.034-.985-.042-2.886-.042s-2.14.008-2.887.042"/><defs><clipPath id="a"><path fill="#fff" d="M61 13.5h14v14H61z"/></clipPath></defs></svg>