<svg xmlns="http://www.w3.org/2000/svg" width="14" height="15" fill="none"><path fill="#181B2C" d="M4.667 7.5a2.333 2.333 0 1 1 4.667 0 2.333 2.333 0 0 1-4.667 0m-1.261 0a3.594 3.594 0 1 0 7.188 0 3.594 3.594 0 0 0-7.188 0m6.491-3.737a.84.84 0 1 0 .84-.84.84.84 0 0 0-.84.84m-5.725 9.435c-.682-.031-1.053-.145-1.3-.241a2.2 2.2 0 0 1-.805-.524 2.16 2.16 0 0 1-.524-.804c-.096-.247-.21-.618-.24-1.3-.034-.738-.041-.96-.041-2.829s.007-2.09.04-2.829c.032-.682.146-1.053.241-1.3.128-.327.28-.56.524-.805.245-.245.478-.397.805-.523.247-.097.618-.21 1.3-.241.738-.034.96-.041 2.828-.041 1.869 0 2.09.007 2.83.04.682.032 1.052.146 1.3.242.326.126.56.278.804.523.246.245.397.478.524.805.096.247.21.618.24 1.3.035.739.041.96.041 2.829s-.006 2.09-.04 2.829c-.031.682-.146 1.053-.241 1.3-.127.327-.279.56-.524.804a2.2 2.2 0 0 1-.805.524c-.246.096-.617.21-1.3.24-.738.035-.96.041-2.829.041s-2.09-.006-2.828-.04M4.114.542C3.37.576 2.86.694 2.415.868c-.46.178-.85.418-1.24.807a3.4 3.4 0 0 0-.807 1.24c-.174.445-.292.954-.326 1.699S0 5.599 0 7.5c0 1.9.008 2.14.042 2.886.034.745.152 1.254.326 1.699.178.46.417.851.807 1.24s.78.628 1.24.807c.446.173.954.292 1.7.325S5.098 14.5 7 14.5s2.14-.008 2.886-.043 1.255-.152 1.7-.325c.46-.179.85-.418 1.24-.807s.628-.78.807-1.24c.173-.445.292-.954.325-1.7S14 9.402 14 7.5s-.008-2.14-.042-2.886c-.034-.745-.152-1.254-.325-1.7-.18-.46-.418-.85-.807-1.24a3.4 3.4 0 0 0-1.24-.806c-.446-.174-.954-.292-1.7-.326S8.903.5 7.002.5 4.86.508 4.114.542"/></svg>