<svg xmlns="http://www.w3.org/2000/svg" width="14" height="15" fill="none"><g fill="#181B2C" clip-path="url(#a)"><path d="M3.259 5.004H.449a.226.226 0 0 0-.226.226v9.029c0 .124.1.226.225.226h2.81a.226.226 0 0 0 .227-.226v-9.03a.226.226 0 0 0-.226-.225M1.855.515A1.856 1.856 0 0 0 0 2.368C0 3.39.832 4.22 1.855 4.22a1.855 1.855 0 0 0 1.853-1.853A1.855 1.855 0 0 0 1.855.515M10.408 4.78c-1.13 0-1.964.485-2.47 1.036V5.23a.226.226 0 0 0-.226-.226H5.021a.226.226 0 0 0-.226.226v9.029c0 .124.101.226.226.226h2.804a.226.226 0 0 0 .226-.226V9.79c0-1.505.409-2.091 1.458-2.091 1.143 0 1.234.94 1.234 2.169v4.39c0 .124.101.226.226.226h2.805a.226.226 0 0 0 .226-.226V9.306c0-2.238-.427-4.527-3.592-4.527"/></g><defs><clipPath id="a"><path fill="#fff" d="M0 .5h14v14H0z"/></clipPath></defs></svg>