<svg width="106" height="42" viewBox="0 0 106 42" fill="none" xmlns="http://www.w3.org/2000/svg">
<path d="M99.0765 28.0015C98.4616 27.9497 97.7042 27.7588 97.2899 27.5484C97.1896 27.4999 97.0407 27.4384 96.9598 27.4189C96.6944 27.3477 95.9532 26.8687 95.6976 26.6001C95.3642 26.2506 94.6975 25.4997 94.623 25.3864C94.4515 25.134 94.1958 24.6452 94.0793 24.3442C94.0081 24.1565 93.9207 23.9332 93.8851 23.8426C93.8042 23.6322 93.6909 22.6257 93.6909 22.1046C93.6909 21.4767 93.8269 20.3763 93.9207 20.25C93.9337 20.2339 93.9887 20.0979 94.0469 19.949C94.2605 19.3924 94.7007 18.6415 94.9467 18.4149C95.0114 18.3567 95.183 18.1754 95.3254 18.0168C95.6976 17.5993 95.84 17.4666 96.1669 17.2401C96.6394 16.91 97.0213 16.7158 97.51 16.5572C98.4065 16.2659 99.0603 16.1656 99.8209 16.1979C100.378 16.2238 100.701 16.2788 101.248 16.4439C101.481 16.5119 101.76 16.5928 101.87 16.6219C102.106 16.6802 102.588 16.9326 102.763 17.0847C102.828 17.143 102.896 17.1915 102.912 17.1915C102.928 17.1915 102.96 17.143 102.983 17.088C103.087 16.8323 103.213 16.6737 103.443 16.5183C103.828 16.2594 104.058 16.1785 104.404 16.1817C104.773 16.185 105.236 16.3856 105.562 16.6834C105.679 16.7934 105.851 17.1689 105.889 17.4084C105.915 17.567 105.925 19.0752 105.919 22.7907L105.909 27.953L104.397 27.9627L102.883 27.9692V27.516C102.883 27.2668 102.873 27.0629 102.863 27.0629C102.85 27.0629 102.792 27.1082 102.727 27.1633C102.614 27.2636 102.323 27.4189 102.245 27.4189C102.226 27.4189 102.051 27.4837 101.857 27.5614C101.484 27.7102 100.944 27.8753 100.649 27.9336C100.442 27.9724 99.6979 28.0371 99.5037 28.0307C99.4293 28.0274 99.2383 28.0145 99.0765 28.0015ZM99.9698 25.0207C100.627 24.9398 101.158 24.6517 101.743 24.053C102.038 23.7552 102.099 23.6743 102.239 23.3895C102.705 22.4347 102.627 21.3375 102.038 20.4669C101.892 20.2533 101.449 19.852 101.099 19.6189C100.112 18.9587 98.8273 19.0234 97.8013 19.784C97.1799 20.2436 96.7818 20.9653 96.6718 21.8359C96.6394 22.0787 96.6426 22.1855 96.6815 22.4606C96.7656 23.0076 96.9792 23.5545 97.209 23.7908C97.2705 23.8555 97.3417 23.9526 97.3644 24.0077C97.4485 24.2083 98.0699 24.6614 98.4972 24.833C99.0053 25.0369 99.426 25.0887 99.9698 25.0207Z" fill="black"/>
<path d="M0.400572 27.9206C0.390862 27.8915 0.387626 26.4836 0.390862 24.7877C0.400572 21.8198 0.403808 21.6871 0.471775 21.2016C0.598 20.3018 0.730697 19.8002 1.1741 18.5671C1.40389 17.9262 1.99942 16.8582 2.28099 16.5798C2.41369 16.4536 2.94124 15.7837 3.02863 15.6348C3.11602 15.4891 3.75038 14.8807 3.89278 14.8062C3.9478 14.7771 4.08374 14.68 4.20025 14.5894C4.31677 14.4988 4.46888 14.3822 4.54009 14.3305C4.61129 14.2787 4.72133 14.1881 4.78283 14.133C5.10324 13.8515 6.61794 13.0553 6.96748 12.9841C7.07429 12.9646 7.29437 12.9031 7.45943 12.8514C8.10674 12.6475 8.75728 12.5115 9.54052 12.4177C9.98716 12.3659 10.7833 12.3659 11.2882 12.4144C12.0747 12.4889 13.2205 12.7284 13.6347 12.8999C13.693 12.9258 13.8224 12.9614 13.9228 12.9841C14.0231 13.0035 14.1946 13.0585 14.3079 13.1038C14.6219 13.23 15.3824 13.6217 15.541 13.7382C15.6187 13.7932 15.7967 13.9129 15.9359 14.0003C16.0783 14.0877 16.3664 14.2949 16.5832 14.4599C16.8 14.6217 17.0201 14.7803 17.0752 14.8095C17.1269 14.8354 17.2046 14.9001 17.2435 14.9486C17.2823 14.9972 17.4862 15.2205 17.6998 15.4438C17.9102 15.6671 18.1853 15.9811 18.3115 16.1397C18.4377 16.3015 18.5898 16.4827 18.6449 16.5442C18.797 16.7125 18.9847 16.9974 19.0268 17.1203C19.0462 17.1786 19.1401 17.3663 19.2404 17.5411C19.8683 18.6512 20.2825 19.8196 20.4476 20.9459C20.5674 21.7842 20.5803 22.1823 20.5706 24.9107C20.5674 26.3897 20.5577 27.6811 20.5512 27.7847L20.5382 27.9692L19.03 27.9627L17.5186 27.953L17.4991 24.7326C17.483 22.0172 17.4732 21.4767 17.4312 21.2857C17.4053 21.1628 17.3503 20.8844 17.3114 20.6708C17.2726 20.4572 17.2273 20.2533 17.2111 20.2177C17.1949 20.1821 17.1464 20.0591 17.101 19.9426C16.9036 19.4118 16.4829 18.6286 16.2725 18.4052C16.2078 18.334 16.0977 18.2046 16.033 18.114C15.5249 17.4343 14.774 16.7125 14.4568 16.6025C14.4018 16.5831 14.2076 16.4763 14.0263 16.3598C13.6865 16.1461 13.3337 15.9681 12.9648 15.8193C12.6508 15.6963 11.8482 15.4827 11.4695 15.4212C11.0002 15.3467 9.93214 15.3467 9.45961 15.4244C9.03239 15.4924 8.4757 15.6218 8.3333 15.6866C8.27504 15.7125 8.09056 15.7869 7.92226 15.8516C7.55977 15.9908 6.99985 16.2691 6.77329 16.4277C6.6859 16.4925 6.55321 16.5701 6.482 16.6025C6.08391 16.7902 4.99644 17.8421 4.79901 18.2272C4.76664 18.2887 4.70191 18.3891 4.65013 18.4441C4.50772 18.6059 4.20349 19.1432 4.01901 19.5542C3.64357 20.386 3.49469 20.9233 3.4073 21.7615C3.36847 22.1531 3.35876 22.7551 3.35876 25.1048V27.9692H1.88937C0.604473 27.9692 0.416754 27.9627 0.400572 27.9206Z" fill="black"/>
<path d="M8.98066 27.9466C8.96772 27.9369 8.95801 26.3186 8.95801 24.3573V20.7842L10.4403 20.7939L11.9194 20.8004L11.9291 24.3864L11.9356 27.9693H10.4695C9.66033 27.9693 8.99037 27.9596 8.98066 27.9466Z" fill="black"/>
<path d="M38.1751 27.9465C38.1654 27.9303 38.1493 26.6551 38.1363 25.1048C38.1136 22.056 38.1266 21.6223 38.269 20.92C38.3111 20.6999 38.4049 20.3698 38.4761 20.1918C38.5473 20.0105 38.6185 19.7937 38.638 19.7063C38.6736 19.5348 38.9228 19.0687 39.159 18.7289C39.4083 18.3696 40.4375 17.3695 40.8064 17.1268C41.224 16.8549 41.6415 16.6478 41.8842 16.596C41.9942 16.5734 42.1302 16.5313 42.182 16.5054C42.2985 16.4439 42.8584 16.308 43.2177 16.2497C43.3698 16.2238 43.729 16.2076 44.0915 16.2109C44.755 16.2141 45.2858 16.2853 45.6515 16.4148C45.7551 16.4536 45.9849 16.5248 46.1629 16.5734C46.5351 16.6769 46.9397 16.8679 47.2536 17.088C47.5967 17.3275 48.1922 17.8485 48.4349 18.1204C48.5547 18.2596 48.6939 18.4052 48.7456 18.4473C48.8913 18.5735 49.2505 19.1464 49.3314 19.3827C49.3735 19.5056 49.4803 19.7807 49.571 19.9944C49.7425 20.4022 49.804 20.6093 49.8817 21.0139C49.9885 21.5867 50.0014 22.0301 49.9917 25.0077L49.982 27.953L48.5126 27.9627C47.3572 27.9692 47.0368 27.9594 47.0173 27.9303C47.0012 27.9077 46.9914 26.4933 46.9882 24.7909V21.6935L46.9073 21.3861C46.8329 21.0818 46.6581 20.6967 46.4898 20.4475C46.3603 20.2565 45.7033 19.6642 45.4832 19.5412C45.0236 19.2823 44.5252 19.1626 43.9782 19.182C43.4021 19.2014 42.962 19.3373 42.4668 19.6481C42.3373 19.729 42.2176 19.8261 42.1949 19.8617C42.1755 19.8973 42.0654 20.0073 41.9554 20.1044C41.5088 20.5025 41.2175 21.1174 41.1333 21.8521C41.1139 22.0204 41.1074 23.2374 41.1139 24.9916C41.1204 26.5677 41.1171 27.8818 41.1107 27.9141C41.0945 27.9659 40.9974 27.9692 39.6413 27.9692C38.8419 27.9692 38.1816 27.9594 38.1751 27.9465Z" fill="black"/>
<path d="M81.4635 19.7579L81.4732 11.5436L81.5444 11.3785C81.5833 11.2879 81.6674 11.1552 81.7289 11.0873C81.7936 11.0161 81.8454 10.9513 81.8454 10.9351C81.8454 10.8963 82.2338 10.6244 82.3892 10.5565C82.6351 10.4464 82.9361 10.4076 83.1886 10.4561C83.5543 10.5209 83.8003 10.6536 84.0689 10.9319C84.1984 11.0646 84.3278 11.22 84.3537 11.2685C84.5026 11.5566 84.4994 11.2556 84.4897 19.8647L84.4832 27.9528L82.9685 27.9625L81.457 27.969L81.4635 19.7579Z" fill="black"/>
<path d="M88.0909 22.6678C88.0909 16.9779 88.0812 17.2822 88.2754 16.9229C88.4275 16.6478 88.5926 16.4925 88.8774 16.3501C89.1913 16.1979 89.4761 16.1429 89.7577 16.1882C90.0425 16.2303 90.1331 16.2659 90.3273 16.3986C90.6478 16.6252 90.7384 16.7061 90.8387 16.8647C91.0556 17.2175 91.0426 16.9779 91.0491 21.1239C91.0491 23.1888 91.0491 25.5515 91.0426 26.3768L91.0361 27.8721H89.5635H88.0909V22.6678Z" fill="black"/>
<path d="M58.3634 13.7578C58.2922 13.7417 58.1239 13.6737 57.9912 13.6057C57.7063 13.4633 57.2953 13.0717 57.1853 12.8354C56.9684 12.3758 56.9652 11.7641 57.182 11.3143C57.2176 11.2431 57.3568 11.0715 57.4895 10.9356C57.6869 10.7349 57.7905 10.6605 58.0429 10.5343L58.3569 10.3789H58.7C58.9653 10.3789 59.0948 10.3951 59.2761 10.4533C59.5512 10.5375 59.891 10.7576 59.9816 10.9065C60.0172 10.968 60.0949 11.0715 60.1532 11.1427C60.2146 11.2107 60.2988 11.3725 60.3473 11.502C60.5092 11.9583 60.4315 12.6865 60.1952 12.9584C60.1467 13.0167 60.0658 13.1267 60.0172 13.2044C59.7518 13.6251 58.9556 13.8938 58.3634 13.7578Z" fill="black"/>
<path d="M89.1358 13.7478C88.783 13.6604 88.5791 13.5245 88.2943 13.2008C88.0645 12.9387 88.0159 12.861 87.9415 12.6409C87.7861 12.1846 87.8476 11.5146 88.0742 11.2201C88.2328 11.0097 88.55 10.6731 88.6341 10.6213C89.1552 10.3041 89.8608 10.288 90.3559 10.5792C90.5954 10.7184 91.0097 11.123 91.1036 11.3042C91.3172 11.725 91.3172 12.4273 91.1036 12.848C90.9547 13.1426 90.411 13.5989 90.0647 13.7251C89.8964 13.7866 89.3364 13.7996 89.1358 13.7478Z" fill="black"/>
<path d="M1.84788 4.92835C1.59866 4.88628 1.23617 4.76976 1.19086 4.71474C1.16821 4.68885 1.13584 4.6662 1.11966 4.6662C1.04522 4.6662 0.669781 4.3652 0.488535 4.15806C0.268452 3.90885 0.1487 3.69847 0.0774965 3.4169C-0.0584375 2.88934 -0.0163627 2.44918 0.210194 1.97988C0.336419 1.72743 0.407622 1.6271 0.621233 1.41349C1.09053 0.947428 1.55012 0.75 2.15858 0.75C2.72821 0.75 2.99037 0.82444 3.44672 1.11249C3.90954 1.40378 4.31734 2.00901 4.39178 2.51391C4.45328 2.94113 4.38208 3.43308 4.21054 3.77291C4.11021 3.97358 3.79626 4.33283 3.58913 4.48495C3.35933 4.65325 3.00979 4.82802 2.79294 4.87657C2.54697 4.93806 2.06472 4.96072 1.84788 4.92835ZM2.60199 3.88943C2.88356 3.79233 2.98713 3.69524 3.13925 3.38129C3.26547 3.12237 3.27518 3.08677 3.27195 2.83756C3.27195 2.39092 3.08747 2.09316 2.70556 1.91515C2.2395 1.6983 1.79933 1.77598 1.33974 2.15465C1.18762 2.28088 1.07758 2.85374 1.1585 3.09972C1.17468 3.1515 1.20381 3.25507 1.22323 3.33275C1.28472 3.56901 1.55012 3.81499 1.84788 3.90885C2.05501 3.97034 2.39485 3.96387 2.60199 3.88943Z" fill="black"/>
<path d="M19.5646 4.80544C19.5549 4.78926 19.5485 3.91539 19.5485 2.85705C19.5452 1.51389 19.5549 0.918372 19.5808 0.889243C19.6067 0.856878 19.7426 0.847168 20.1116 0.847168H20.6068L20.6909 0.934554C20.7363 0.986339 20.801 1.08343 20.8334 1.15787C20.869 1.22908 20.9337 1.33265 20.9758 1.38443C21.0178 1.43622 21.1667 1.62393 21.3059 1.80194C21.4451 1.97995 21.5842 2.14501 21.6166 2.16767C21.649 2.19033 21.8529 2.43307 22.0697 2.70817C22.2866 2.98327 22.4743 3.20983 22.484 3.20983C22.4937 3.20983 22.5002 2.71141 22.4937 2.10294C22.4872 1.49124 22.4937 0.960446 22.5034 0.918372C22.5196 0.847168 22.5261 0.847168 23.0148 0.853641L23.5067 0.863351L23.5164 2.84734L23.5229 4.82809H23.0148L22.5034 4.82486L22.2607 4.51091C22.128 4.33938 21.937 4.10959 21.8367 4.00278C21.5842 3.73415 20.9078 2.86676 20.8301 2.70817C20.7524 2.55605 20.6456 2.41365 20.6392 2.45248C20.6359 2.46867 20.6327 3.00593 20.6295 3.64676L20.6262 4.81191L20.1019 4.82162C19.8138 4.82486 19.5711 4.81838 19.5646 4.80544Z" fill="black"/>
<path d="M38.8651 4.80566C38.8522 4.53703 38.8716 0.895938 38.8845 0.876519C38.9039 0.840917 41.0336 0.837681 41.0886 0.873283C41.1177 0.889465 41.1274 1.01245 41.1274 1.26814C41.1242 1.82806 41.1954 1.77304 40.5157 1.76009L39.9332 1.75038L39.9299 1.82482C39.9267 1.8669 39.9235 2.00283 39.9235 2.12582L39.917 2.35237L40.4834 2.36856L41.0498 2.38474V2.83785V3.29097L40.4931 3.30068C40.0918 3.30715 39.9364 3.3201 39.9267 3.34922C39.9202 3.36864 39.9202 3.51429 39.9267 3.66964L39.9364 3.95445L40.5254 3.96093L41.1145 3.97064V4.39139V4.81213L39.9914 4.82184C39.37 4.82508 38.8651 4.81861 38.8651 4.80566Z" fill="black"/>
<path d="M65.1955 4.80213C65.1858 4.78919 65.1825 3.89591 65.1858 2.81814L65.1923 0.863281H66.0985H67.0047L67.2345 0.953904C67.8041 1.17722 68.1666 1.49117 68.4353 1.99607C68.5841 2.27441 68.6003 2.31648 68.6424 2.64337C68.6845 2.96055 68.6424 3.25184 68.5 3.61433C68.4094 3.84412 68.3641 3.90562 68.1051 4.16777C67.7847 4.49143 67.5355 4.65002 67.1698 4.76006C66.9691 4.82155 66.8688 4.82802 66.0823 4.82802C65.6033 4.82802 65.2052 4.81508 65.1955 4.80213ZM66.9238 3.8862C67.0856 3.81499 67.296 3.59491 67.4093 3.37159C67.4546 3.2842 67.4934 3.12238 67.5128 2.97026C67.5355 2.74694 67.5323 2.67897 67.474 2.49449C67.419 2.31324 67.3801 2.24851 67.2248 2.0964C66.9918 1.87308 66.7911 1.78893 66.448 1.77922L66.1988 1.76951L66.2053 2.83756C66.2085 3.42661 66.2118 3.9218 66.2118 3.93798C66.2118 3.99624 66.762 3.9574 66.9238 3.8862Z" fill="black"/>
<path d="M83.4316 4.79573C83.4316 4.74718 83.6841 4.08046 83.7359 3.9866C83.7618 3.94129 83.9204 3.53672 84.0919 3.08684C84.2634 2.63373 84.4253 2.22593 84.4511 2.18062C84.5191 2.05439 84.8848 1.07696 84.9075 0.953973L84.9269 0.847168H85.4901C85.9011 0.847168 86.0565 0.856878 86.0759 0.889243C86.1341 0.979866 86.6131 2.23887 86.6585 2.41688C86.6843 2.52369 86.7491 2.72112 86.7976 2.85381C87.1504 3.77622 87.2281 3.97365 87.2507 4.00278C87.2637 4.0222 87.3058 4.11606 87.3414 4.21315C87.377 4.31025 87.4449 4.48826 87.4902 4.61125L87.5712 4.82809H87.0274H86.4804L86.3607 4.47208L86.2377 4.11606H85.5224H84.8039L84.6809 4.47208L84.558 4.82809H83.9948C83.6453 4.82809 83.4316 4.81515 83.4316 4.79573ZM85.9238 3.31987C85.9238 3.27133 85.5839 2.29713 85.5354 2.20651C85.5063 2.15149 85.4901 2.14501 85.4512 2.17738C85.4253 2.1968 85.4059 2.22916 85.4059 2.24535C85.4059 2.26477 85.325 2.50427 85.2279 2.78261C85.1308 3.06095 85.0499 3.30369 85.0499 3.32311C85.0499 3.34577 85.1988 3.35548 85.4868 3.35548C85.7943 3.35548 85.9238 3.34577 85.9238 3.31987Z" fill="black"/>
<path d="M103.466 3.86666V2.90218L103.236 2.57853C103.11 2.40052 102.961 2.20309 102.899 2.1416C102.838 2.0801 102.763 1.96359 102.728 1.88267C102.692 1.80176 102.537 1.55579 102.382 1.33247C102.226 1.11238 102.094 0.914954 102.084 0.892298C102.061 0.83404 103.2 0.827567 103.275 0.885825C103.304 0.908481 103.469 1.13827 103.644 1.3972C103.819 1.65612 103.977 1.88591 103.997 1.90857C104.029 1.94093 104.074 1.89238 104.217 1.68201C104.317 1.53313 104.43 1.34217 104.469 1.25479C104.505 1.1674 104.579 1.04118 104.634 0.969974L104.735 0.84375L105.362 0.850223C105.709 0.85346 105.99 0.859933 105.99 0.866406C105.99 0.895534 105.116 2.11894 105.019 2.22251C104.955 2.29371 104.812 2.4782 104.702 2.63679L104.502 2.91836V3.87314V4.82791H103.984H103.466V3.86666Z" fill="black"/>
<path d="M57.8626 41.2103C57.17 41.1164 56.7234 40.9837 56.157 40.7054C55.8883 40.5759 55.5873 40.4173 55.4935 40.3591C55.3996 40.2976 55.2346 40.2069 55.131 40.1552C54.9918 40.0904 54.8494 39.9739 54.6326 39.7538C53.6033 38.7052 53.0175 37.7439 52.8654 36.8539C52.8395 36.6921 52.7942 36.4461 52.7651 36.3037C52.7392 36.1613 52.7068 35.7826 52.6971 35.4622C52.6809 34.9605 52.6874 34.8246 52.7457 34.4751C52.7845 34.2517 52.8363 33.9378 52.8622 33.7727C52.9399 33.2937 53.0564 33.0089 53.4706 32.3066C53.9691 31.4651 54.7167 30.7142 55.5517 30.2158C55.8948 30.0119 56.5615 29.7012 56.8237 29.617C57.7267 29.3387 58.9307 29.2837 59.8045 29.4779C60.3968 29.6106 61.4163 30.0313 61.7108 30.2611C61.7691 30.3096 61.918 30.4229 62.0377 30.5103C62.3096 30.711 62.63 30.9699 62.8857 31.2062C63.1252 31.423 63.5071 31.9214 63.5718 32.0962C63.6107 32.2063 63.7369 32.4458 63.9667 32.8406C64.135 33.1287 64.3486 33.8245 64.4489 34.3941C64.5137 34.7761 64.5137 35.8409 64.4522 36.2228C64.4004 36.5205 64.2256 37.1614 64.1091 37.4624C64.0023 37.7472 63.7725 38.2035 63.6819 38.3103C63.6366 38.3654 63.5816 38.4625 63.5621 38.5272C63.4489 38.8767 62.4229 39.948 62.0054 40.1584C61.9083 40.2069 61.7788 40.2879 61.7205 40.3396C61.494 40.5338 60.6784 40.8834 59.9664 41.0905C59.4453 41.2426 58.4937 41.2944 57.8626 41.2103ZM59.4906 38.1356C59.9566 37.9802 60.5586 37.553 60.8661 37.1549C61.0927 36.8604 61.3516 36.3976 61.4228 36.1613C61.6947 35.2486 61.4972 34.255 60.8888 33.4879C60.6622 33.1999 60.3127 32.8989 60.1573 32.8568C60.0958 32.8374 60.0149 32.7953 59.9858 32.7629C59.9146 32.6853 59.4582 32.5137 59.1475 32.449C58.7947 32.3746 58.2834 32.3907 57.9144 32.4846C57.4548 32.6011 56.8334 32.8956 56.6263 33.0995C56.2799 33.4394 55.9563 33.9799 55.7718 34.5236C55.7038 34.7275 55.6812 34.8634 55.6715 35.1774C55.6456 35.76 55.7394 36.1807 55.9822 36.6079C56.0502 36.7244 56.1246 36.8571 56.1505 36.9025C56.1764 36.9478 56.2508 37.0513 56.3188 37.1322C56.3835 37.2164 56.4385 37.3005 56.4385 37.3167C56.4385 37.3717 56.8625 37.7245 57.0761 37.8475C57.3286 37.9964 57.7202 38.155 57.9694 38.2132C58.1086 38.2456 58.3254 38.2553 58.6717 38.2488C59.1378 38.2424 59.1961 38.2327 59.4906 38.1356Z" fill="black"/>
<path d="M58.0541 28.0018C57.4294 27.9435 56.808 27.7882 56.3646 27.581C56.219 27.5131 56.0442 27.4483 55.9795 27.4354C55.85 27.4095 55.3548 27.1182 55.015 26.8658C54.7075 26.6392 53.7948 25.6456 53.5585 25.2766C53.3902 25.0242 53.1022 24.4351 52.9922 24.1341C52.9468 24.0111 52.8659 23.6519 52.8077 23.3412C52.7138 22.8266 52.7041 22.7133 52.7041 22.1275C52.7041 21.6711 52.7203 21.3896 52.7559 21.1727C52.785 21.0044 52.8336 20.7358 52.8595 20.5772C52.9177 20.2341 53.018 19.9558 53.2543 19.48C53.5229 18.9363 53.7398 18.6288 54.1767 18.1822C54.3936 17.9588 54.5975 17.7388 54.6234 17.6967C54.6913 17.5931 54.9697 17.3698 55.3063 17.1432C55.6008 16.949 56.2513 16.6092 56.3322 16.6092C56.3614 16.6092 56.5329 16.5574 56.7174 16.4959C57.3906 16.2726 58.1091 16.169 58.8341 16.1982C59.3843 16.2176 59.7047 16.2758 60.2582 16.4474C60.4815 16.5186 60.7372 16.5898 60.8245 16.6092C60.9993 16.648 61.5948 16.9329 61.6984 17.03C61.734 17.0623 61.9153 17.2015 62.103 17.3374C62.4234 17.5769 63.2422 18.3602 63.4397 18.6256C63.4882 18.6903 63.5497 18.8036 63.5788 18.878C63.6047 18.9525 63.6371 19.0301 63.6533 19.0496C63.8248 19.2632 64.2456 20.26 64.3588 20.7196C64.6113 21.7553 64.5498 23.0499 64.2035 23.982C64.0352 24.4384 64.0158 24.4837 63.8863 24.7329C63.8248 24.8494 63.7083 25.076 63.6241 25.241C63.5432 25.4028 63.4332 25.5776 63.3782 25.6294C63.3264 25.6812 63.1904 25.8365 63.0739 25.9757C62.8377 26.2605 62.4655 26.6036 62.103 26.8787C61.9703 26.9758 61.8084 27.102 61.747 27.1538C61.6078 27.2703 61.4265 27.3642 61.2129 27.4289C61.1255 27.4548 60.967 27.5131 60.8634 27.5616C60.5527 27.6975 59.8762 27.8982 59.5461 27.95C59.1545 28.0115 58.4133 28.0374 58.0541 28.0018ZM59.3681 24.9433C59.9216 24.7814 60.1999 24.6002 60.7274 24.0662C61.022 23.7684 61.1061 23.6551 61.2162 23.435C61.5528 22.7586 61.6272 22.1178 61.4492 21.3993C61.4136 21.2504 61.3553 21.0756 61.323 21.0109C61.2874 20.9494 61.2615 20.8847 61.2615 20.8652C61.2615 20.8458 61.1935 20.7196 61.1094 20.5837C60.8731 20.205 60.229 19.6386 59.8083 19.4412C59.4587 19.2761 59.1059 19.192 58.6723 19.1758C58.313 19.1628 58.2321 19.1693 57.944 19.2437C57.766 19.2891 57.4909 19.3894 57.3291 19.4671C56.9893 19.6321 56.5232 19.972 56.4552 20.1047C56.4293 20.1564 56.3808 20.2179 56.3484 20.2406C56.219 20.3345 55.973 20.7358 55.8597 21.0497C55.7335 21.3798 55.6558 21.7909 55.6558 22.0951C55.659 22.7327 55.9083 23.4706 56.2384 23.817C56.3161 23.9011 56.397 24.0047 56.4229 24.0532C56.4455 24.0985 56.5394 24.2053 56.6268 24.2862C56.9569 24.597 57.4035 24.83 57.9117 24.9627C58.2353 25.0501 58.3033 25.0565 58.6723 25.0436C58.983 25.0339 59.1448 25.0112 59.3681 24.9433Z" fill="black"/>
<path d="M72.2154 27.9978C71.9468 27.9687 71.5034 27.8846 71.3901 27.8392C71.3448 27.8231 71.2445 27.7939 71.1636 27.7745C70.9985 27.7324 70.8593 27.6774 70.6457 27.5674C70.5648 27.5253 70.4289 27.4735 70.3383 27.4509C70.102 27.3861 69.6392 27.1143 69.2443 26.8036C68.9854 26.5964 69.021 26.632 68.7038 26.2825C68.5517 26.1142 68.3963 25.9459 68.3575 25.9038C68.3154 25.865 68.2831 25.8164 68.2831 25.8035C68.2831 25.7873 68.2248 25.7226 68.1568 25.6611C68.0856 25.5963 68.0047 25.5025 67.9756 25.4539C67.9497 25.4054 67.9012 25.3245 67.8688 25.2759C67.7846 25.1465 67.4739 24.5962 67.4739 24.5768C67.4739 24.5542 67.3218 24.1658 67.2636 24.0363C67.1859 23.8648 67.1212 23.5606 67.0661 23.1042C66.9755 22.3469 67.0338 20.9454 67.1826 20.3952C67.2312 20.2075 67.4221 19.7415 67.5095 19.5861C67.5257 19.5602 67.5548 19.502 67.571 19.4566C67.5904 19.4113 67.6196 19.3531 67.6358 19.3272C67.6552 19.3013 67.6875 19.243 67.7102 19.1977C67.7976 19.0197 68.1633 18.4954 68.2766 18.3854C68.4643 18.2073 68.8656 17.7704 68.8656 17.751C68.8656 17.7283 69.1569 17.45 69.1796 17.45C69.1893 17.45 69.3252 17.3561 69.4838 17.2396C69.6392 17.1231 69.7783 17.0292 69.788 17.0292C69.7978 17.0292 69.8657 16.9904 69.9434 16.9419C70.1505 16.8092 70.4807 16.657 70.6619 16.6085C70.7525 16.5858 70.869 16.5502 70.9208 16.5276C71.0665 16.4661 71.607 16.3237 71.8432 16.2848C72.3611 16.1975 72.5715 16.1813 73.0893 16.1975C73.769 16.2201 74.0538 16.2719 74.8597 16.5276C74.9989 16.5729 75.138 16.6085 75.1704 16.6085C75.2578 16.6085 75.9213 16.9419 76.0184 17.0357C76.1219 17.1328 76.2773 17.2332 76.2773 17.2008C76.2773 17.1878 76.2999 17.2105 76.3291 17.2493C76.355 17.2882 76.4003 17.3205 76.4262 17.3205C76.4521 17.3205 76.4715 17.3335 76.4715 17.3464C76.4715 17.3594 76.5394 17.4241 76.6268 17.4888C76.711 17.5536 76.8955 17.7251 77.0379 17.8643C77.614 18.4404 77.7564 18.6022 77.7984 18.7284C77.8211 18.7996 77.8535 18.8741 77.8761 18.8903C77.8955 18.9097 77.9376 18.9744 77.97 19.0359C77.9991 19.0974 78.0606 19.2074 78.1059 19.2786C78.148 19.3498 78.1933 19.4308 78.203 19.4566C78.216 19.4825 78.258 19.5796 78.3001 19.667C78.449 19.9971 78.4781 20.0651 78.4781 20.1104C78.4781 20.1331 78.4975 20.1816 78.5234 20.2172C78.5461 20.2528 78.5849 20.3629 78.6076 20.46C78.6302 20.5571 78.6626 20.6606 78.6755 20.6865C78.737 20.7933 78.8147 21.4795 78.8277 22.0038C78.8374 22.4537 78.8277 22.6349 78.7726 22.9747C78.6917 23.4829 78.6853 23.5055 78.6626 23.567C78.6529 23.5929 78.6205 23.6997 78.5882 23.8033C78.559 23.9069 78.5202 23.9975 78.5072 24.0072C78.4911 24.0169 78.4781 24.0493 78.4781 24.0784C78.4749 24.1075 78.449 24.1917 78.4134 24.2629C78.3778 24.3341 78.3519 24.4021 78.3487 24.415C78.3487 24.4506 78.0833 24.9879 78.0121 25.1044C77.9765 25.1594 77.9279 25.2371 77.8955 25.2824C77.8664 25.3277 77.8276 25.4086 77.8082 25.4669C77.7402 25.6546 76.7466 26.6644 76.3776 26.9168C76.2449 27.0075 76.0863 27.124 76.0216 27.179C75.8727 27.3085 75.7433 27.3732 75.4746 27.4541C75.3549 27.4929 75.1866 27.5544 75.0959 27.5965C74.892 27.6904 74.8176 27.7163 74.7464 27.7292C74.7173 27.7357 74.6072 27.7713 74.5037 27.8036C73.9373 27.9946 72.9566 28.0787 72.2154 27.9978ZM73.591 24.9652C73.8531 24.894 74.18 24.7743 74.2059 24.7354C74.2156 24.7257 74.303 24.6642 74.4001 24.6027C74.6525 24.4441 74.6299 24.4603 75.0345 24.0557C75.2384 23.8551 75.4034 23.6674 75.4034 23.6447C75.4034 23.6188 75.4164 23.5994 75.4325 23.5994C75.4617 23.5994 75.6721 23.156 75.6721 23.0913C75.6721 23.0686 75.685 23.0492 75.6979 23.0492C75.7109 23.0492 75.7271 23.0006 75.74 22.9456C75.7497 22.8874 75.7659 22.787 75.7789 22.7255C75.7886 22.664 75.8015 22.5993 75.8047 22.5799C75.808 22.5637 75.8209 22.5313 75.8339 22.5087C75.8468 22.486 75.8598 22.3177 75.863 22.1365C75.863 21.7999 75.7821 21.3565 75.6753 21.117C75.6494 21.062 75.63 21.0005 75.63 20.9843C75.63 20.9422 75.5199 20.7318 75.3905 20.5247C75.2837 20.3532 74.7399 19.8127 74.6752 19.8127C74.6493 19.8127 74.6169 19.79 74.604 19.7641C74.5749 19.7123 74.1509 19.4243 74.1056 19.4243C74.0894 19.4243 74.0149 19.3951 73.9405 19.3628C73.6589 19.2366 73.413 19.188 73.0084 19.1718C72.6459 19.1589 72.5682 19.1654 72.2705 19.243C72.086 19.2916 71.9112 19.3401 71.8821 19.3563C71.2315 19.6638 70.9435 19.8709 70.6295 20.2625C70.4968 20.4244 70.2768 20.7933 70.2412 20.9131C70.2282 20.9584 70.1958 21.0231 70.1732 21.0587C70.1473 21.0943 70.1279 21.1526 70.1279 21.1882C70.1246 21.2238 70.1052 21.3112 70.0793 21.3824C69.9984 21.6025 69.9596 22.0782 69.9952 22.3954C70.0502 22.91 70.2929 23.5411 70.526 23.7774C70.5778 23.8324 70.649 23.9328 70.6846 24.004C70.7202 24.0719 70.7817 24.1561 70.8205 24.1852C70.8561 24.2143 70.9467 24.292 71.0147 24.3567C71.0859 24.4182 71.1959 24.4959 71.2574 24.5283C71.3222 24.5606 71.3934 24.606 71.416 24.6254C71.4387 24.648 71.4937 24.6772 71.539 24.6869C71.5811 24.6966 71.6167 24.7192 71.6167 24.7322C71.6167 24.7484 71.6717 24.7775 71.7397 24.8001C71.8044 24.8196 71.8756 24.8487 71.8918 24.8649C71.9371 24.9005 72.3384 24.9879 72.3676 24.9717C72.3837 24.962 72.3935 24.9684 72.3935 24.9879C72.3935 25.0396 72.5164 25.0526 72.9437 25.0396C73.222 25.0332 73.4227 25.0105 73.591 24.9652Z" fill="black"/>
<path d="M28.5978 27.9784C28.5654 27.9719 28.5396 27.9428 28.5396 27.9169C28.5396 27.8845 28.5816 27.8716 28.6852 27.8716C28.8082 27.8716 28.8308 27.8813 28.8308 27.9363C28.8308 27.9849 28.8114 28.001 28.7435 27.9978C28.6917 27.9946 28.6269 27.9881 28.5978 27.9784Z" fill="black"/>
<path d="M30.0928 27.9363C30.0928 27.8813 30.1154 27.8716 30.2384 27.8716C30.3905 27.8716 30.4261 27.9104 30.3226 27.9687C30.2125 28.0269 30.0928 28.0108 30.0928 27.9363Z" fill="black"/>
<path d="M27.9175 27.8263C27.8301 27.7616 27.8463 27.7422 27.9887 27.7422C28.0955 27.7422 28.1181 27.7519 28.1181 27.8069C28.1181 27.8846 28.0049 27.8943 27.9175 27.8263Z" fill="black"/>
<path d="M28.7324 25.0233C28.7324 24.9521 28.7972 24.9392 28.8975 24.991C28.9946 25.0428 28.9719 25.0881 28.8457 25.0881C28.7551 25.0881 28.7324 25.0751 28.7324 25.0233Z" fill="black"/>
<path d="M35.2075 22.9844C35.2075 22.8776 35.2172 22.855 35.2722 22.855C35.3435 22.855 35.3596 22.9456 35.3046 23.0524C35.2496 23.1527 35.2075 23.1236 35.2075 22.9844Z" fill="black"/>
<path d="M31.8408 16.7185C31.8408 16.6732 31.8505 16.6408 31.8667 16.6473C32.103 16.7606 32.1256 16.8027 31.9541 16.8027C31.8538 16.8027 31.8408 16.793 31.8408 16.7185Z" fill="black"/>
<path d="M27.8594 16.4597C27.8594 16.4176 27.9727 16.3528 28.0471 16.3496C28.0956 16.3496 28.1183 16.369 28.1183 16.4143C28.1183 16.4694 28.0956 16.4791 27.9888 16.4791C27.9176 16.4791 27.8594 16.4694 27.8594 16.4597Z" fill="black"/>
<path d="M30.7729 16.4011C30.7729 16.3299 30.7827 16.3235 30.87 16.3494C31.0739 16.4076 31.0934 16.4788 30.9024 16.4788C30.7859 16.4788 30.7729 16.4691 30.7729 16.4011Z" fill="black"/>
<path d="M28.9433 28.0143C28.8915 28.0046 28.7005 27.9787 28.5225 27.9528C28.1082 27.8913 27.5872 27.736 27.1923 27.5612C27.1017 27.5224 26.9496 27.4673 26.8557 27.4382C26.6389 27.3735 26.2926 27.1825 26.1243 27.0336C26.0531 26.9689 25.8394 26.7877 25.6485 26.6323C25.4608 26.477 25.1986 26.2277 25.0724 26.0821C24.9462 25.9365 24.7682 25.7358 24.6743 25.6355C24.5837 25.5384 24.4866 25.4057 24.4574 25.3442C23.8684 24.124 23.7389 23.7712 23.6159 23.0818C23.5156 22.5122 23.5124 21.7063 23.6127 21.1399C23.6548 20.9166 23.7001 20.6933 23.7163 20.6383C23.8749 20.1172 23.972 19.8809 24.1985 19.4246C24.3086 19.2077 24.396 19.0135 24.396 18.9941C24.396 18.8323 25.2018 17.9358 25.7229 17.5215C25.8912 17.3856 26.0822 17.2302 26.1437 17.1752C26.3832 16.9616 26.9463 16.6703 27.2603 16.5991C27.3865 16.5699 27.6195 16.502 27.7781 16.447C28.5775 16.1719 29.6294 16.1168 30.5777 16.2981C30.882 16.3596 31.3674 16.489 31.5163 16.5538C31.5778 16.5797 31.6814 16.612 31.7429 16.625C31.9144 16.6606 32.3999 16.9098 32.7559 17.1461C33.0537 17.3467 33.2737 17.5506 34.0635 18.363C34.3159 18.6219 34.5684 19.0071 34.8143 19.5055C34.9664 19.8097 35.0312 19.9942 35.1218 20.3632C35.3451 21.2823 35.3516 21.3244 35.3516 22.0947C35.3516 22.852 35.3192 23.111 35.1542 23.6968C35.1121 23.8489 35.0765 23.9978 35.0765 24.0269C35.0765 24.1725 34.7949 24.8004 34.5651 25.1694C34.5101 25.26 34.4324 25.3862 34.3968 25.4542C34.3612 25.5189 34.3191 25.574 34.303 25.574C34.2868 25.574 34.1735 25.6937 34.0505 25.8394C33.9308 25.985 33.6654 26.2731 33.4615 26.4737C33.0116 26.9268 32.4646 27.3023 32.073 27.4285C31.9371 27.4738 31.7137 27.5612 31.581 27.6227C31.0923 27.8557 30.3609 27.9981 29.5744 28.0175C29.2799 28.024 28.9983 28.0208 28.9433 28.0143ZM30.1893 24.9558C30.5842 24.8425 31.1053 24.5739 31.3674 24.3473C31.3998 24.3182 31.4807 24.2243 31.5487 24.1337C31.6134 24.0463 31.7364 23.9007 31.8173 23.8101C31.9986 23.6126 32.196 23.221 32.2995 22.8553C32.4064 22.4572 32.4064 21.7613 32.2963 21.3665C32.1701 20.9134 31.8529 20.3178 31.6943 20.2337C31.6555 20.211 31.5875 20.1431 31.5487 20.0783C31.3512 19.7644 30.678 19.3825 30.0599 19.2271C29.7686 19.1527 29.063 19.1689 28.7458 19.2563C28.2183 19.3987 27.9529 19.5573 27.393 20.0686C27.0726 20.3632 26.9981 20.4603 26.8136 20.8325C26.6033 21.2532 26.5159 21.6416 26.5191 22.1271C26.5223 22.6384 26.6292 23.043 26.8816 23.5285C26.9949 23.7389 27.4059 24.1855 27.7296 24.4379C28.173 24.7907 28.3024 24.8457 29.0727 25.0367C29.2346 25.0788 29.9531 25.027 30.1893 24.9558Z" fill="black"/>
</svg>
