<svg xmlns="http://www.w3.org/2000/svg" width="106" height="42" fill="none"><path fill="#000" d="M99.077 28.002c-.615-.052-1.373-.243-1.787-.454a2 2 0 0 0-.33-.13c-.266-.07-1.007-.55-1.262-.818-.334-.35-1-1.1-1.075-1.214a6.5 6.5 0 0 1-.544-1.042l-.194-.501c-.08-.21-.194-1.217-.194-1.738 0-.628.136-1.729.23-1.855.013-.016.068-.152.126-.301.213-.557.654-1.308.9-1.534a8 8 0 0 0 .378-.398c.373-.418.515-.55.842-.777.472-.33.854-.524 1.343-.683.896-.291 1.55-.391 2.31-.36.558.027.881.082 1.428.247.233.068.512.149.622.178.236.058.718.31.893.463a.6.6 0 0 0 .149.107c.016 0 .048-.049.071-.104a1.14 1.14 0 0 1 .46-.57c.385-.259.615-.34.961-.336.369.003.832.204 1.158.501.117.11.289.486.327.725.026.159.036 1.667.03 5.383l-.01 5.162-1.512.01-1.514.006v-.453c0-.25-.01-.453-.02-.453a.6.6 0 0 0-.136.1c-.113.1-.404.256-.482.256-.019 0-.194.065-.388.142a8.4 8.4 0 0 1-1.208.373c-.207.038-.951.103-1.145.097a16 16 0 0 1-.428-.03m.893-2.981c.657-.081 1.188-.37 1.773-.968.295-.298.356-.379.496-.663a2.9 2.9 0 0 0-.201-2.923c-.146-.214-.589-.615-.939-.848-.987-.66-2.272-.596-3.298.165-.621.46-1.02 1.181-1.13 2.052-.032.243-.028.35.01.625.085.547.298 1.094.528 1.33a1 1 0 0 1 .155.217c.084.2.706.653 1.133.825a2.73 2.73 0 0 0 1.473.188M.4 27.92c-.01-.029-.012-1.436-.01-3.132.01-2.968.014-3.1.082-3.586.126-.9.259-1.402.702-2.635.23-.64.825-1.709 1.107-1.987.133-.126.66-.796.748-.945.087-.146.721-.754.864-.829.055-.029.19-.126.307-.217.117-.09.269-.207.34-.258s.181-.143.243-.198c.32-.281 1.835-1.078 2.184-1.149a5 5 0 0 0 .492-.133c.648-.203 1.298-.34 2.082-.433a10 10 0 0 1 1.747-.004c.787.075 1.932.314 2.347.486.058.026.187.061.288.084.1.02.272.075.385.12.314.126 1.074.518 1.233.634.078.055.256.175.395.262.142.088.43.295.647.46.217.162.437.32.492.35.052.025.13.09.169.139.038.048.242.271.456.495.21.223.485.537.611.696.127.162.279.343.334.404.152.168.34.453.382.576.02.059.113.246.213.421.628 1.11 1.043 2.279 1.208 3.405.12.838.132 1.236.123 3.965-.004 1.479-.013 2.77-.02 2.874l-.013.184-1.508-.006-1.511-.01-.02-3.22c-.016-2.716-.026-3.256-.068-3.447-.026-.123-.08-.402-.12-.615a4 4 0 0 0-.1-.453 10 10 0 0 1-.11-.275c-.197-.531-.618-1.314-.828-1.538a4 4 0 0 1-.24-.291c-.508-.68-1.259-1.402-1.576-1.512a3.4 3.4 0 0 1-.43-.242 6.7 6.7 0 0 0-1.062-.54 10.5 10.5 0 0 0-1.495-.399c-.47-.074-1.538-.074-2.01.003-.428.068-.984.198-1.127.263-.058.026-.242.1-.41.165-.363.139-.923.417-1.15.576-.087.064-.22.142-.291.174-.398.188-1.486 1.24-1.683 1.625a1.2 1.2 0 0 1-.149.217c-.142.162-.447.7-.631 1.11-.375.832-.524 1.37-.612 2.208-.039.391-.048.993-.048 3.343v2.864h-1.47c-1.285 0-1.472-.006-1.488-.048"/><path fill="#000" d="M8.98 27.947c-.012-.01-.022-1.628-.022-3.59v-3.573l1.482.01 1.48.006.01 3.586.006 3.583H10.47c-.81 0-1.48-.01-1.49-.022M38.175 27.947c-.01-.017-.026-1.292-.039-2.842-.022-3.049-.01-3.483.133-4.185.042-.22.136-.55.207-.728a4 4 0 0 0 .162-.486c.036-.171.285-.637.521-.977.25-.36 1.279-1.36 1.647-1.602.418-.272.836-.48 1.078-.531.11-.023.246-.065.298-.09.116-.062.676-.198 1.036-.256.152-.026.511-.042.874-.04.663.004 1.194.075 1.56.205.103.039.333.11.51.158.373.104.778.295 1.092.515.343.24.938.76 1.18 1.032.12.14.26.285.312.327.145.127.505.7.585.936.042.123.15.398.24.611.172.408.233.615.31 1.02.108.573.12 1.016.11 3.994l-.009 2.945-1.47.01c-1.155.006-1.475-.004-1.495-.033-.016-.022-.026-1.437-.029-3.14v-3.096l-.08-.308a3.3 3.3 0 0 0-.418-.938c-.13-.192-.787-.784-1.007-.907a2.8 2.8 0 0 0-1.505-.359 2.8 2.8 0 0 0-1.511.466c-.13.081-.25.178-.272.214-.02.035-.13.145-.24.242-.446.399-.737 1.013-.822 1.748-.02.168-.026 1.385-.02 3.14.007 1.576.004 2.89-.002 2.922-.017.052-.114.055-1.47.055-.8 0-1.46-.01-1.466-.023M81.464 19.758l.01-8.214.07-.165c.04-.091.123-.224.185-.292a.6.6 0 0 0 .116-.152c0-.039.389-.31.544-.379.246-.11.547-.148.8-.1.365.065.611.198.88.476.13.133.259.288.285.336.149.289.145-.012.136 8.597l-.007 8.088-1.514.01-1.512.006zM88.09 22.668c0-5.69-.009-5.386.185-5.745.152-.275.318-.43.602-.573.314-.152.6-.207.88-.162.285.042.376.078.57.21.32.227.411.308.512.467.217.353.204.113.21 4.259 0 2.065 0 4.428-.006 5.253l-.007 1.495h-2.9450000000000003zM58.363 13.758a2 2 0 0 1-.372-.152c-.285-.143-.696-.534-.806-.77-.217-.46-.22-1.072-.003-1.522.036-.07.175-.242.307-.378a1.7 1.7 0 0 1 .554-.402l.314-.155h.343c.265 0 .395.016.576.074.275.085.615.305.706.454.035.061.113.165.171.236.062.068.146.23.194.359.162.456.084 1.185-.152 1.456a3 3 0 0 0-.178.246c-.265.421-1.061.69-1.654.554M89.136 13.748c-.353-.088-.557-.223-.842-.547-.23-.262-.278-.34-.352-.56-.156-.456-.094-1.126.132-1.42.159-.211.476-.548.56-.6.521-.317 1.227-.333 1.722-.042.24.14.654.544.748.725.213.421.213 1.123 0 1.544-.15.295-.693.75-1.04.877-.168.062-.728.075-.928.023M1.848 4.928c-.25-.042-.612-.158-.657-.213-.023-.026-.055-.049-.071-.049-.075 0-.45-.3-.631-.508-.22-.25-.34-.46-.412-.741-.135-.528-.093-.968.133-1.437.126-.253.198-.353.411-.567.47-.466.93-.663 1.538-.663.57 0 .831.074 1.288.362.463.292.87.897.945 1.402.061.427-.01.92-.181 1.259-.1.2-.415.56-.622.712-.23.168-.58.343-.796.392a3.3 3.3 0 0 1-.945.051m.754-1.039c.282-.097.385-.194.537-.508.126-.259.136-.294.133-.543 0-.447-.185-.745-.566-.923-.466-.217-.907-.139-1.366.24-.152.126-.262.699-.181.945.016.051.045.155.064.233.062.236.327.482.625.576.207.061.547.055.754-.02M19.565 4.805c-.01-.016-.017-.89-.017-1.948-.003-1.343.007-1.939.033-1.968.026-.032.162-.042.53-.042h.496l.084.088c.045.051.11.148.142.223.036.071.1.175.143.226l.33.418c.14.178.278.343.31.366.033.022.237.265.454.54s.404.502.414.502.016-.499.01-1.107c-.007-.612 0-1.143.01-1.185.016-.07.022-.07.51-.064l.493.01.01 1.983.006 1.981h-.508l-.512-.003-.242-.314a9 9 0 0 0-.424-.508c-.253-.269-.93-1.136-1.007-1.295-.078-.152-.184-.294-.19-.256a78 78 0 0 0-.01 1.195l-.004 1.165-.524.01c-.288.003-.53-.004-.537-.017M38.865 4.806c-.013-.269.007-3.91.02-3.93.019-.035 2.149-.038 2.204-.003.029.016.038.14.038.395-.003.56.068.505-.611.492l-.583-.01-.003.075a6 6 0 0 0-.007.3l-.006.227.566.017.567.016v.906l-.557.01c-.401.006-.557.02-.566.048-.007.02-.007.165 0 .32l.01.285.588.007.59.01v.841l-1.124.01c-.621.003-1.126-.003-1.126-.016M65.195 4.802c-.01-.013-.012-.906-.01-1.984l.007-1.955h1.8130000000000002l.23.09c.57.224.932.538 1.2 1.043.15.278.165.32.207.647.043.318 0 .609-.142.971-.09.23-.136.292-.395.554-.32.323-.57.482-.935.592-.2.062-.301.068-1.088.068-.479 0-.877-.013-.886-.026m1.729-.916c.162-.071.372-.291.485-.514.046-.088.084-.25.104-.402.022-.223.02-.291-.039-.476-.055-.18-.094-.245-.25-.398-.232-.223-.433-.307-.776-.317l-.25-.01.007 1.069.007 1.1c0 .058.55.02.712-.052M83.432 4.796c0-.049.252-.716.304-.81.026-.045.184-.45.356-.9.171-.452.333-.86.36-.905.067-.127.433-1.104.456-1.227l.019-.107h.563c.411 0 .567.01.586.042.058.09.537 1.35.583 1.528.025.107.09.304.139.437.352.922.43 1.12.453 1.149.013.02.055.113.09.21l.15.398.08.217H86.48l-.12-.356-.122-.356h-1.434l-.123.356-.123.356h-.563c-.35 0-.563-.013-.563-.032m2.492-1.476c0-.049-.34-1.023-.389-1.113-.029-.056-.045-.062-.084-.03-.026.02-.045.052-.045.068 0 .02-.081.26-.178.538a8 8 0 0 0-.178.54c0 .023.149.032.437.032.307 0 .437-.01.437-.035M103.466 3.867v-.965l-.23-.323a5 5 0 0 0-.337-.437 1 1 0 0 1-.171-.26 5 5 0 0 0-.346-.55 8 8 0 0 1-.298-.44c-.023-.058 1.116-.064 1.191-.006.029.022.194.252.369.511.175.26.333.489.353.512.032.032.077-.017.22-.227.1-.149.213-.34.252-.427.036-.088.11-.214.165-.285l.101-.126.627.006c.347.003.628.01.628.016 0 .03-.874 1.253-.971 1.357a5 5 0 0 0-.317.414l-.2.281v1.91h-1.036zM57.863 41.21c-.693-.094-1.14-.226-1.706-.505-.269-.13-.57-.288-.663-.346a4 4 0 0 0-.363-.204c-.14-.065-.282-.181-.498-.401-1.03-1.049-1.616-2.01-1.768-2.9a16 16 0 0 0-.1-.55 8 8 0 0 1-.068-.842c-.016-.502-.01-.637.049-.987.038-.223.09-.537.116-.702.078-.48.194-.764.609-1.466a6.1 6.1 0 0 1 2.08-2.091c.344-.204 1.01-.515 1.273-.599.903-.278 2.107-.333 2.98-.14.593.134 1.612.554 1.907.784.058.049.207.162.327.25.272.2.592.459.848.695.24.217.621.715.686.89.039.11.165.35.395.745.168.288.382.983.482 1.553.065.382.065 1.447.003 1.829a9 9 0 0 1-.343 1.24c-.107.284-.336.74-.427.847a.8.8 0 0 0-.12.217c-.113.35-1.14 1.421-1.557 1.631-.097.049-.226.13-.285.182-.226.194-1.042.543-1.754.75-.52.153-1.472.204-2.103.12m1.628-3.074c.466-.156 1.068-.583 1.375-.981.227-.295.486-.757.557-.994a2.95 2.95 0 0 0-.534-2.673c-.227-.288-.576-.59-.732-.631a.5.5 0 0 1-.171-.094c-.071-.078-.528-.25-.838-.314a3.1 3.1 0 0 0-1.234.036c-.46.116-1.08.41-1.288.614-.346.34-.67.88-.854 1.425-.068.203-.09.34-.1.653-.026.583.067 1.004.31 1.43.068.117.143.25.169.296.025.045.1.148.168.23.064.083.12.167.12.184 0 .055.423.407.637.53.253.15.644.308.893.366.14.033.356.042.703.036.466-.007.524-.016.819-.113M58.054 28.002c-.625-.058-1.246-.214-1.69-.421a2.4 2.4 0 0 0-.384-.146c-.13-.025-.625-.317-.965-.57-.307-.226-1.22-1.22-1.456-1.588a7.4 7.4 0 0 1-.567-1.143 7 7 0 0 1-.184-.793c-.094-.514-.104-.628-.104-1.213 0-.457.016-.738.052-.955.029-.169.078-.437.103-.596.059-.343.159-.621.395-1.097.269-.544.486-.851.923-1.298.217-.223.42-.443.446-.485.068-.104.347-.327.683-.554.295-.194.945-.534 1.026-.534.03 0 .2-.052.385-.113a6 6 0 0 1 2.117-.298c.55.02.87.078 1.424.25.223.07.48.142.566.161.175.039.77.324.874.421.036.032.217.171.405.307.32.24 1.14 1.023 1.337 1.289.048.064.11.178.139.252a1 1 0 0 0 .074.172c.172.213.593 1.21.706 1.67.252 1.035.19 2.33-.155 3.262-.169.456-.188.502-.318.75l-.262.509c-.08.162-.19.337-.246.388a8 8 0 0 0-.304.347 6.3 6.3 0 0 1-.971.903 9 9 0 0 0-.356.275q-.212.176-.534.275a3 3 0 0 0-.35.133c-.31.136-.987.336-1.317.388a7.8 7.8 0 0 1-1.492.052m1.314-3.059c.554-.162.832-.343 1.36-.877.294-.298.378-.41.488-.631.337-.676.411-1.317.233-2.036a2.4 2.4 0 0 0-.126-.388.5.5 0 0 1-.062-.146c0-.02-.068-.145-.152-.281-.236-.379-.88-.945-1.3-1.143a2.8 2.8 0 0 0-1.137-.265c-.359-.013-.44-.007-.728.068a4 4 0 0 0-.615.223c-.34.165-.806.505-.874.638a.4.4 0 0 1-.107.136c-.129.093-.375.495-.488.809-.127.33-.204.74-.204 1.045.003.638.252 1.376.582 1.722.078.084.159.188.185.236.023.046.116.152.204.233.33.311.776.544 1.285.677.323.087.391.093.76.08.311-.01.473-.032.696-.1M72.215 27.998c-.268-.03-.712-.113-.825-.159a3 3 0 0 0-.226-.064 2.3 2.3 0 0 1-.518-.208 1.7 1.7 0 0 0-.308-.116c-.236-.065-.699-.337-1.094-.647-.259-.208-.223-.172-.54-.521-.152-.169-.308-.337-.346-.38-.043-.038-.075-.087-.075-.1a.5.5 0 0 0-.126-.142 1.2 1.2 0 0 1-.181-.207 3 3 0 0 0-.107-.178c-.084-.13-.395-.68-.395-.7 0-.022-.152-.41-.21-.54-.078-.171-.143-.475-.198-.932-.09-.757-.032-2.159.117-2.709.048-.187.24-.654.326-.809a1 1 0 0 0 .062-.13c.02-.045.049-.103.065-.129.02-.026.052-.084.074-.13.088-.177.453-.702.567-.812.187-.178.589-.615.589-.634 0-.023.29-.301.314-.301.01 0 .145-.094.304-.21.155-.117.294-.21.304-.21s.078-.04.155-.088c.207-.133.538-.285.719-.334.09-.022.207-.058.259-.08.145-.062.686-.204.922-.243a5 5 0 0 1 1.246-.087c.68.022.965.074 1.77.33.14.045.279.08.311.08.088 0 .751.334.848.428.104.097.26.197.26.165 0-.013.022.01.051.048.026.04.071.072.097.072s.046.012.046.025.067.078.155.143c.084.065.269.236.41.375.577.576.72.738.761.864a.4.4 0 0 0 .078.162c.02.02.062.084.094.146.03.061.09.171.136.243.042.07.087.152.097.178.013.026.055.123.097.21.149.33.178.398.178.443 0 .023.02.072.045.107.023.036.062.146.085.243.022.097.055.2.067.226.062.107.14.794.153 1.318.01.45 0 .63-.055.97-.081.509-.088.532-.11.593-.01.026-.042.133-.075.236a.7.7 0 0 1-.08.204c-.017.01-.03.042-.03.071a.7.7 0 0 1-.065.185c-.035.071-.061.14-.064.152 0 .036-.266.573-.337.69-.035.054-.084.132-.117.177a1 1 0 0 0-.087.185c-.068.188-1.061 1.197-1.43 1.45-.133.09-.292.207-.356.262-.15.13-.279.194-.547.275-.12.039-.288.1-.38.142-.203.094-.277.12-.349.133-.029.007-.139.042-.242.075-.567.19-1.547.275-2.289.194m1.376-3.033c.262-.071.589-.19.615-.23.01-.01.097-.07.194-.132.252-.159.23-.143.634-.547.204-.2.37-.389.37-.411 0-.026.012-.046.029-.046.029 0 .24-.443.24-.508 0-.022.012-.042.025-.042s.03-.048.042-.103c.01-.059.026-.159.039-.22.01-.062.023-.127.026-.146a.3.3 0 0 1 .029-.071c.013-.023.026-.191.029-.372 0-.337-.08-.78-.188-1.02a.5.5 0 0 1-.045-.133c0-.042-.11-.252-.24-.46-.106-.17-.65-.711-.715-.711-.026 0-.058-.023-.071-.049-.03-.052-.453-.34-.498-.34a1 1 0 0 1-.165-.061c-.282-.126-.528-.175-.933-.191-.362-.013-.44-.007-.737.071a4 4 0 0 0-.389.113c-.65.308-.939.515-1.253.906-.132.162-.352.531-.388.651a.7.7 0 0 1-.068.146.26.26 0 0 0-.045.13 1 1 0 0 1-.049.193c-.08.22-.12.696-.084 1.013.055.515.298 1.146.531 1.382.052.055.123.156.159.227a.7.7 0 0 0 .135.181c.036.03.127.107.195.172.07.061.18.139.242.171.065.033.136.078.159.097a.3.3 0 0 0 .123.062c.042.01.078.032.078.045 0 .016.055.046.123.068.064.02.136.049.152.065.045.036.446.123.476.107q.025-.014.026.016c0 .052.122.065.55.052.278-.007.479-.03.647-.075M28.598 27.978c-.033-.006-.058-.035-.058-.061 0-.033.042-.045.145-.045.123 0 .146.01.146.064 0 .049-.02.065-.087.062a1 1 0 0 1-.146-.02M30.093 27.936c0-.055.022-.064.145-.064.152 0 .188.038.085.097-.11.058-.23.042-.23-.033M27.918 27.826c-.088-.064-.072-.084.07-.084.108 0 .13.01.13.065 0 .078-.113.087-.2.02M28.732 25.023c0-.07.065-.084.166-.032.097.052.074.097-.052.097-.09 0-.114-.013-.114-.065M35.208 22.984c0-.106.01-.129.064-.129.072 0 .088.09.033.197-.055.1-.097.072-.097-.068M31.84 16.719c0-.046.01-.078.027-.072.236.114.259.156.087.156-.1 0-.113-.01-.113-.085M27.86 16.46c0-.042.113-.107.187-.11q.072-.002.071.064c0 .055-.022.065-.13.065-.07 0-.129-.01-.129-.02M30.773 16.401c0-.071.01-.078.097-.052.204.059.223.13.032.13-.116 0-.13-.01-.13-.078"/><path fill="#000" d="M28.943 28.014c-.052-.01-.242-.035-.42-.061a5.6 5.6 0 0 1-1.33-.392 4 4 0 0 0-.337-.123 2.4 2.4 0 0 1-.732-.404 16 16 0 0 0-.476-.402 6 6 0 0 1-.576-.55 20 20 0 0 0-.398-.447 1.6 1.6 0 0 1-.217-.29c-.589-1.221-.718-1.574-.841-2.263a6.3 6.3 0 0 1-.003-1.942c.042-.223.087-.447.103-.502.159-.52.256-.757.482-1.213.11-.217.198-.412.198-.43 0-.163.806-1.06 1.327-1.474.168-.135.36-.29.42-.346.24-.213.803-.505 1.117-.576a6 6 0 0 0 .518-.152c.8-.275 1.851-.33 2.8-.149.304.062.79.191.938.256.062.026.165.058.227.071.171.036.657.285 1.013.521.298.2.518.405 1.307 1.217.253.259.505.644.751 1.143.152.304.217.488.308.857.223.92.23.961.23 1.732 0 .757-.033 1.016-.198 1.602a3 3 0 0 0-.078.33c0 .145-.281.773-.51 1.142-.056.091-.134.217-.17.285-.035.065-.077.12-.093.12s-.13.12-.252.265c-.12.146-.386.434-.59.635-.45.453-.996.828-1.388.954-.136.046-.36.133-.492.195-.489.233-1.22.375-2.007.394a9 9 0 0 1-.63-.003m1.246-3.058c.395-.113.916-.382 1.178-.609.033-.029.114-.123.182-.213.064-.088.187-.233.268-.324.182-.197.379-.589.483-.955.106-.398.106-1.094-.004-1.489-.126-.453-.443-1.048-.602-1.132a.5.5 0 0 1-.145-.156c-.198-.314-.871-.695-1.49-.85-.29-.075-.996-.06-1.313.028-.528.143-.793.301-1.353.813-.32.294-.395.391-.58.764-.21.42-.297.809-.294 1.294.003.511.11.916.363 1.402.113.21.524.657.848.909.443.353.572.408 1.343.599.162.042.88-.01 1.116-.081"/></svg>