<svg xmlns="http://www.w3.org/2000/svg" width="18" height="18" fill="none"><path fill="#fff" d="M3.082.75A2.25 2.25 0 0 0 .844 3.214a15.6 15.6 0 0 0 2.42 6.83v.002A15.4 15.4 0 0 0 7.99 14.77a15.6 15.6 0 0 0 6.807 2.417 2.25 2.25 0 0 0 2.263-1.339v-.001a2.25 2.25 0 0 0 .189-.91V12.71a2.25 2.25 0 0 0-1.935-2.284l-.008-.001a9 9 0 0 1-1.94-.483h-.002a2.25 2.25 0 0 0-2.373.506l-.497.497a11.2 11.2 0 0 1-3.439-3.44l.494-.493.003-.003a2.25 2.25 0 0 0 .507-2.373v-.002a9 9 0 0 1-.485-1.948A2.25 2.25 0 0 0 5.325.75zm0 1.5h2.257a.75.75 0 0 1 .75.645v-.006c.103.776.292 1.537.566 2.27v.003a.75.75 0 0 1-.169.791l-.949.95a.75.75 0 0 0-.122.9 12.75 12.75 0 0 0 4.782 4.782.75.75 0 0 0 .9-.122l.95-.95a.75.75 0 0 1 .37-.2h.002a.75.75 0 0 1 .419.032h.003a10.4 10.4 0 0 0 2.27.566h-.006a.75.75 0 0 1 .645.78v2.252a.75.75 0 0 1-.813.75 14.1 14.1 0 0 1-6.136-2.184l-.006-.005A13.9 13.9 0 0 1 4.522 9.23a14.1 14.1 0 0 1-2.184-6.17.746.746 0 0 1 .744-.81"/></svg>