<svg xmlns="http://www.w3.org/2000/svg" width="16" height="18" fill="none"><path fill="#284CE5" fill-rule="evenodd" d="M2.9 1.05a.75.75 0 0 1 .6-.3h9a.75.75 0 0 1 .6.3l2.25 3a.75.75 0 0 1 .15.45V15a2.25 2.25 0 0 1-2.25 2.25H2.75A2.25 2.25 0 0 1 .5 15V4.5a.75.75 0 0 1 .15-.45zm.975 1.2L2.75 3.75h10.5l-1.125-1.5zM14 5.25H2V15a.75.75 0 0 0 .75.75h10.5A.75.75 0 0 0 14 15zm-9 1.5a.75.75 0 0 1 .75.75 2.25 2.25 0 1 0 4.5 0 .75.75 0 0 1 1.5 0 3.75 3.75 0 0 1-7.5 0A.75.75 0 0 1 5 6.75" clip-rule="evenodd"/></svg>