<svg xmlns="http://www.w3.org/2000/svg" width="18" height="16" fill="none"><path fill="#284CE5" fill-rule="evenodd" d="M6.75 2a2.25 2.25 0 1 0 0 4.5 2.25 2.25 0 0 0 0-4.5M3 4.25a3.75 3.75 0 1 1 7.5 0 3.75 3.75 0 0 1-7.5 0m8.273-3.089a.75.75 0 0 1 .913-.54 3.75 3.75 0 0 1 0 7.266.75.75 0 0 1-.372-1.454 2.25 2.25 0 0 0 0-4.359.75.75 0 0 1-.54-.913M1.098 10.598A3.75 3.75 0 0 1 3.75 9.5h6a3.75 3.75 0 0 1 3.75 3.75v1.5a.75.75 0 0 1-1.5 0v-1.5A2.25 2.25 0 0 0 9.75 11h-6a2.25 2.25 0 0 0-2.25 2.25v1.5a.75.75 0 0 1-1.5 0v-1.5a3.75 3.75 0 0 1 1.098-2.652m13.176-.438a.75.75 0 0 1 .914-.539A3.75 3.75 0 0 1 18 13.25v1.501a.75.75 0 0 1-1.5 0v-1.5a2.25 2.25 0 0 0-1.687-2.176.75.75 0 0 1-.54-.914" clip-rule="evenodd"/></svg>